<?xml version="1.0" encoding="utf-8" ?><svg xmlns="http://www.w3.org/2000/svg" xmlns:xlink="http://www.w3.org/1999/xlink" width="1024" height="1024" viewBox="0 0 1024 1024"><path fill="#FC3D4B" d="M78.9455 276.524C100.254 276.724 121.546 276.412 142.908 276.728C179.749 277.272 213.092 294.827 238.019 321.718C265.365 351.43 279.862 390.745 278.351 431.097C276.688 466.409 263.257 500.148 240.198 526.942C234.317 533.703 227.861 539.383 221.255 545.41C248.902 563.534 259.996 589.218 261.208 621.904C261.522 630.386 259.708 640.613 263.381 648.501C266.128 654.401 272.395 656.277 278.103 658.236L277.812 740.452C271.712 740.563 263.902 740.902 257.967 740.136C234.633 737.124 217.087 723.91 202.89 706.012C189.391 686.648 183.458 663.17 184.569 639.693C185.196 626.451 187.114 616.017 182.348 603.096C176.88 588.273 167.56 579.862 153.569 573.274C153.871 591.128 153.515 610.05 153.511 627.984L153.58 740.285C146.756 739.724 134.347 740.058 127.193 740.058L78.9378 740.195L78.8556 495.588L78.8676 353.973C78.7499 328.156 78.7759 302.34 78.9455 276.524ZM153.917 494.974C165.581 489.807 173.364 485.823 182.158 476.063C195.066 460.617 203.416 441.331 201.171 420.997C197.975 392.054 181.747 371.105 153.777 363.281C153.447 391.857 153.427 420.436 153.715 449.013C153.786 464.057 153.313 480.115 153.917 494.974Z"/><path fill="#FC3D4B" d="M290.208 276.696C341.114 276.308 381.618 271.417 424.992 302.836C458.162 326.9 480.365 363.199 486.679 403.689C493.03 445.6 482.52 488.32 457.449 522.5C435.018 553.307 402.265 574.552 364.473 580.497C364.809 592.303 364.571 605.347 364.602 617.25L365.031 740.2C340.238 739.888 314.973 740.108 290.144 740.09C289.883 700.671 289.967 661.251 290.396 621.833L290.397 402.935L290.424 323.242C290.425 308.115 290.709 291.747 290.208 276.696ZM394.077 476.126C426.981 437.019 414.49 379.493 364.557 363.254L365.017 495.501C377.463 490.74 384.956 485.791 394.077 476.126Z"/><path fill="#FC3D4B" d="M631.763 276.695C643.487 275.339 656.273 276.865 667.605 279.977C659.791 304.325 649.383 338.335 640.075 361.857C638.939 361.992 637.804 362.146 636.673 362.317C616.983 365.299 599.896 373.586 587.918 389.92C569.893 414.498 571.924 450.271 587.675 475.456C595.528 488.096 606.165 498.251 613.783 511.089C646.512 566.243 646.28 632.376 606.567 684.233C580.723 717.981 549.615 735.023 507.803 740.982C492.048 741.463 487.274 741.19 472.284 737.002C478.001 720.684 482.724 703.722 488.512 687.372C491.851 677.939 495.091 667.811 497.34 658.086C518.933 657.271 534.463 651.411 548.586 634.238C567.517 611.217 565 577.961 549.586 553.84C541.96 541.907 530.995 531.932 524.098 519.4C510.055 494.725 501.25 469.995 498.462 441.65C494.545 401.832 509.021 359.75 534.448 329.082C559.436 298.943 592.64 280.379 631.763 276.695Z"/><path fill="#1BADC0" d="M809.901 561.397L810.285 561.522C810.502 561.755 810.772 561.947 810.937 562.219C812.216 564.33 820.019 719.017 822.031 738.696C796.543 737.942 768.111 738.507 742.393 738.512L605.017 738.749L592.726 738.824C600.416 731.788 611.599 723.136 619.896 716.344L671.359 674.293C717.098 636.858 763.645 598.062 809.901 561.397Z"/><path fill="#1BADC0" d="M797.889 401.278C799.495 403.444 800.119 421.69 800.415 425.718C801.989 445.626 803.46 465.542 804.83 485.466C805.7 498.363 806.332 514.771 808.012 527.419C790.679 543.716 771.443 558.847 753.186 574.214L653.01 658.347L646.011 664.504C650.163 645.309 654.056 626.059 657.687 606.759C659.639 596.286 661.422 582.23 664.495 572.291C665.308 569.664 675.04 557.447 677.325 554.512L697.691 528.402L797.889 401.278Z"/><path fill="#1BADC0" d="M829.023 573.403C831.071 575.099 846.484 596.025 849.753 600.002C875.113 631.091 900.083 662.497 924.656 694.211C936.189 708.862 948.871 723.697 960.022 738.475L839.103 738.54C837.219 700.043 833.393 660.577 831.495 622.037C830.787 607.669 828.752 587.18 829.023 573.403Z"/><path fill="#1BADC0" d="M788.722 270.826C789.932 273.562 790.599 288.047 790.845 291.732C791.85 306.977 792.773 322.228 793.616 337.483C794.11 345.937 794.531 357.297 795.648 365.546C792.63 369.926 787.887 375.675 784.527 380.181C774.134 394.181 763.624 408.094 752.998 421.918C727.199 456.017 700.605 491.561 674.396 525.261C673.009 527.249 672.16 528.281 670.54 530.09L682.37 467.729C684.309 457.478 686.284 444.454 689.107 434.563C690.203 430.725 697.091 420.172 699.599 416.133L716.376 389.044L763.878 311.331C772.102 297.908 780.287 284.052 788.722 270.826Z"/><path fill="#1BADC0" d="M816.06 419.726C818.046 421.239 834.267 451.642 837.025 456.629C852.474 484.439 867.706 512.368 882.72 540.415L901.868 575.846C908.281 587.637 913.182 595.468 916.642 608.635C922.591 631.273 929.985 653.744 936.215 676.288C932.837 674.463 903.303 634.282 899.005 628.662L823.912 530.348C823.342 526.309 822.974 522.07 822.69 517.999C820.414 485.319 818.698 452.373 816.06 419.726Z"/><path fill="#1BADC0" d="M804.549 287.955C808.677 292.759 831.136 350.833 835.538 361.538L863.213 428.173C867.29 438.188 872.941 450.329 875.955 460.431C882.903 483.713 890.778 508.266 896.773 531.742C896.641 531.662 896.499 531.596 896.376 531.501C892.388 528.432 813.493 373.734 811.539 366.356C809.34 358.052 809.751 348.262 809.126 339.66C807.992 322.393 806.466 305.153 804.549 287.955Z"/></svg>